<?xml version="1.0" encoding="UTF-8" standalone="no"?>
<!-- Created with Inkscape (http://www.inkscape.org/) -->

<svg
   version="1.1"
   id="svg67"
   width="534.26086"
   height="534.26086"
   viewBox="0 0 534.26086 534.26086"
   xmlns="http://www.w3.org/2000/svg"
   xmlns:svg="http://www.w3.org/2000/svg">
  <defs
     id="defs71" />
  <g
     id="g73">
    <g
       id="g1371"
       transform="matrix(1.1608013,0,0,1.1608013,196.495,-24.428742)">
      <path
         id="path1601-2-3"
         style="stroke-width:18.7834"
         d="M 85.356525,76.204292 A 43.095726,43.259575 0 0 1 42.260799,119.46387 43.095726,43.259575 0 0 1 -0.83492661,76.204292 43.095726,43.259575 0 0 1 42.260799,32.944717 43.095726,43.259575 0 0 1 85.356525,76.204292 Z" />
      <path
         id="path1601-2-3-0"
         style="stroke-width:18.7834"
         d="m 256.49061,145.61416 a 43.095726,43.259575 0 0 1 -43.09573,43.25958 43.095726,43.259575 0 0 1 -43.09573,-43.25958 43.095726,43.259575 0 0 1 43.09573,-43.25957 43.095726,43.259575 0 0 1 43.09573,43.25957 z" />
      <path
         id="path1601-2-6"
         style="stroke-width:18.7834"
         d="m -74.965691,235.22231 a 43.095726,43.259575 0 0 1 -43.095729,43.25957 43.095726,43.259575 0 0 1 -43.09572,-43.25957 43.095726,43.259575 0 0 1 43.09572,-43.25958 43.095726,43.259575 0 0 1 43.095729,43.25958 z" />
      <path
         id="path1601-2-7"
         style="stroke-width:18.7834"
         d="m -65.044876,428.16422 a 43.095726,43.259575 0 0 1 -43.095724,43.25957 43.095726,43.259575 0 0 1 -43.09573,-43.25957 43.095726,43.259575 0 0 1 43.09573,-43.25958 43.095726,43.259575 0 0 1 43.095724,43.25958 z" />
      <path
         id="path1601-2-5"
         style="stroke-width:18.7834"
         d="m 244.00666,412.90488 a 43.095726,43.259575 0 0 1 -43.09573,43.25957 43.095726,43.259575 0 0 1 -43.09572,-43.25957 43.095726,43.259575 0 0 1 43.09572,-43.25958 43.095726,43.259575 0 0 1 43.09573,43.25958 z" />
      <path
         style="fill:none;stroke:#000000;stroke-width:29.29011193;stroke-linecap:butt;stroke-linejoin:miter;stroke-opacity:1;stroke-miterlimit:4;stroke-dasharray:none"
         d="M 200.91093,412.90487 -108.1406,428.16422 -118.06142,235.22231 42.260799,76.204293 v 0"
         id="path2149" />
      <path
         style="fill:none;stroke:#000000;stroke-width:29.29011193;stroke-linecap:butt;stroke-linejoin:miter;stroke-opacity:1;stroke-miterlimit:4;stroke-dasharray:none"
         d="M 42.260799,76.204293 213.39488,145.61416 v 0"
         id="path3310" />
    </g>
  </g>
</svg>
