<?xml version="1.0" encoding="UTF-8" standalone="no"?>
<svg
   width="32"
   height="32"
   version="1.1"
   id="svg10"
   sodipodi:docname="go-next-symbolic.svg"
   inkscape:version="1.1.1 (1:1.1+202109281949+c3084ef5ed)"
   xmlns:inkscape="http://www.inkscape.org/namespaces/inkscape"
   xmlns:sodipodi="http://sodipodi.sourceforge.net/DTD/sodipodi-0.dtd"
   xmlns="http://www.w3.org/2000/svg"
   xmlns:svg="http://www.w3.org/2000/svg">
  <defs
     id="defs14" />
  <sodipodi:namedview
     id="namedview12"
     pagecolor="#ffffff"
     bordercolor="#666666"
     borderopacity="1.0"
     inkscape:pageshadow="2"
     inkscape:pageopacity="0.0"
     inkscape:pagecheckerboard="0"
     showgrid="false"
     inkscape:zoom="9.2586794"
     inkscape:cx="-5.7783619"
     inkscape:cy="12.042754"
     inkscape:window-width="1864"
     inkscape:window-height="1016"
     inkscape:window-x="56"
     inkscape:window-y="27"
     inkscape:window-maximized="1"
     inkscape:current-layer="svg10" />
  <g
     fill="#2e3436"
     id="g8"
     transform="matrix(2.48368,0,0,2.48368,-4.2648956,-3.7658996)">
    <path
       d="M 6.707,2.293 5.293,3.707 9.586,8 5.293,12.293 6.707,13.707 12.414,8 Z"
       font-family="sans-serif"
       font-weight="400"
       overflow="visible"
       style="font-variant-ligatures:normal;font-variant-position:normal;font-variant-caps:normal;font-variant-numeric:normal;font-variant-alternates:normal;font-feature-settings:normal;text-indent:0;text-decoration-line:none;text-decoration-style:solid;text-decoration-color:#000000;text-transform:none;text-orientation:mixed;white-space:normal;shape-padding:0;isolation:auto;mix-blend-mode:normal"
       id="path2" />
    <path
       d="M 6,13 H 5 v 1 H 6 Z M 6,2 H 5 v 1 h 1 z"
       overflow="visible"
       id="path4" />
    <path
       d="M 6,2 C 5.446,2 5,2.446 5,3 5,3.554 5.446,4 6,4 6.554,4 7,3.554 7,3 7,2.446 6.554,2 6,2 Z m 0,10 c -0.554,0 -1,0.446 -1,1 0,0.554 0.446,1 1,1 0.554,0 1,-0.446 1,-1 0,-0.554 -0.446,-1 -1,-1 z"
       overflow="visible"
       id="path6" />
  </g>
</svg>
