<?xml version="1.0" encoding="UTF-8" standalone="no"?>
<svg
   width="32"
   height="32"
   version="1.1"
   id="svg7"
   sodipodi:docname="grid-rectangular.svg"
   inkscape:version="1.1.1 (1:1.1+202109281949+c3084ef5ed)"
   xmlns:inkscape="http://www.inkscape.org/namespaces/inkscape"
   xmlns:sodipodi="http://sodipodi.sourceforge.net/DTD/sodipodi-0.dtd"
   xmlns="http://www.w3.org/2000/svg"
   xmlns:svg="http://www.w3.org/2000/svg">
  <sodipodi:namedview
     id="namedview9"
     pagecolor="#ffffff"
     bordercolor="#666666"
     borderopacity="1.0"
     inkscape:pageshadow="2"
     inkscape:pageopacity="0.0"
     inkscape:pagecheckerboard="0"
     showgrid="false"
     width="32px"
     inkscape:zoom="13.09375"
     inkscape:cx="-4.3150358"
     inkscape:cy="12.71599"
     inkscape:window-width="1864"
     inkscape:window-height="1016"
     inkscape:window-x="56"
     inkscape:window-y="27"
     inkscape:window-maximized="1"
     inkscape:current-layer="svg7" />
  <defs
     id="defs3">
    <style
       id="current-color-scheme"
       type="text/css">
   .ColorScheme-Text { color:#6e6e6e; } .ColorScheme-Highlight { color:#4285f4; } .ColorScheme-NeutralText { color:#ff9800; } .ColorScheme-PositiveText { color:#4caf50; } .ColorScheme-NegativeText { color:#f44336; }
  </style>
  </defs>
  <path
     style="fill:currentColor;stroke-width:2.14286"
     class="ColorScheme-Text"
     d="M 3.1428571,1 V 3.1428571 H 1 V 7.4285714 H 3.1428571 V 13.857143 H 1 v 4.285714 h 2.1428571 v 6.428572 H 1 v 4.285714 H 3.1428571 V 31 H 7.4285714 V 28.857143 H 13.857143 V 31 h 4.285714 v -2.142857 h 6.428572 V 31 h 4.285714 V 28.857143 H 31 V 24.571429 H 28.857143 V 18.142857 H 31 V 13.857143 H 28.857143 V 7.4285714 H 31 V 3.1428571 H 28.857143 V 1 H 24.571429 V 3.1428571 H 18.142857 V 1 H 13.857143 V 3.1428571 H 7.4285714 V 1 Z M 7.4285714,7.4285714 H 13.857143 V 13.857143 H 7.4285714 Z m 10.7142856,0 h 6.428572 V 13.857143 H 18.142857 Z M 7.4285714,18.142857 h 6.4285716 v 6.428572 H 7.4285714 Z m 10.7142856,0 h 6.428572 v 6.428572 h -6.428572 z"
     id="path5" />
</svg>
