<?xml version="1.0" encoding="UTF-8" standalone="no"?>
<svg
   xmlns:dc="http://purl.org/dc/elements/1.1/"
   xmlns:cc="http://creativecommons.org/ns#"
   xmlns:rdf="http://www.w3.org/1999/02/22-rdf-syntax-ns#"
   xmlns:svg="http://www.w3.org/2000/svg"
   xmlns="http://www.w3.org/2000/svg"
   xmlns:sodipodi="http://sodipodi.sourceforge.net/DTD/sodipodi-0.dtd"
   xmlns:inkscape="http://www.inkscape.org/namespaces/inkscape"
   viewBox="0 0 16 16"
   version="1.1"
   id="svg8"
   sodipodi:docname="snap-bounding-box-center.svg"
   inkscape:version="0.92.5 (2060ec1f9f, 2020-04-08)">
  <metadata
     id="metadata12">
    <rdf:RDF>
      <cc:Work
         rdf:about="">
        <dc:format>image/svg+xml</dc:format>
        <dc:type
           rdf:resource="http://purl.org/dc/dcmitype/StillImage" />
      </cc:Work>
    </rdf:RDF>
  </metadata>
  <sodipodi:namedview
     pagecolor="#ffffff"
     bordercolor="#666666"
     borderopacity="1"
     objecttolerance="10"
     gridtolerance="10"
     guidetolerance="10"
     inkscape:pageopacity="0"
     inkscape:pageshadow="2"
     inkscape:window-width="1920"
     inkscape:window-height="1015"
     id="namedview10"
     showgrid="false"
     inkscape:zoom="29.5"
     inkscape:cx="13.061436"
     inkscape:cy="7.4626996"
     inkscape:window-x="0"
     inkscape:window-y="0"
     inkscape:window-maximized="1"
     inkscape:current-layer="svg8" />
  <defs
     id="defs3051">
    <style
       type="text/css"
       id="current-color-scheme">
      .ColorScheme-Text {
        color:#232629;
      }
      .ColorScheme-Highlight {
        color:#3daee9;
      }
      </style>
  </defs>
  <path
     style="color:#3daee9;fill:currentColor;fill-opacity:1;stroke:none;stroke-width:2.12499952"
     d="m 8.4194915,3.5338983 a 4.25,4.25 0 0 0 -4.25,4.25 4.25,4.25 0 0 0 4.25,4.2499997 4.25,4.25 0 0 0 4.2500005,-4.2499997 4.25,4.25 0 0 0 -4.2500005,-4.25 m 0,2.125 a 2.125,2.125 0 0 1 2.1250005,2.125 2.125,2.125 0 0 1 -2.1250005,2.125 2.125,2.125 0 0 1 -2.125,-2.125 2.125,2.125 0 0 1 2.125,-2.125"
     class="ColorScheme-Highlight"
     id="path6"
     inkscape:connector-curvature="0" />
  <path
     style="fill:none;fill-rule:evenodd;stroke:#000000;stroke-width:0.52737504;stroke-linecap:butt;stroke-linejoin:miter;stroke-miterlimit:4;stroke-dasharray:none;stroke-opacity:1"
     d="M 11.471138,4.9611465 5.5446586,10.796654"
     id="path3719"
     inkscape:connector-type="polyline"
     inkscape:connector-curvature="0" />
  <path
     style="fill:none;fill-rule:evenodd;stroke:#000000;stroke-width:0.52737504;stroke-linecap:butt;stroke-linejoin:miter;stroke-miterlimit:4;stroke-dasharray:none;stroke-opacity:1"
     d="M 5.5791331,4.7093649 11.505613,10.544873"
     id="path3719-3"
     inkscape:connector-type="polyline"
     inkscape:connector-curvature="0" />
  <path
     style="fill:#3daee9;fill-opacity:1;stroke:#000000;stroke-width:0.01016949;stroke-miterlimit:4;stroke-dasharray:none;stroke-opacity:1"
     d="M 5.5516872,10.778942 5.38347,10.607025 6.8410971,9.1710838 8.2987242,7.7351425 6.8580463,6.3120537 5.4173683,4.8889648 5.5902454,4.7135405 5.7631225,4.5381161 7.1879299,5.9478778 c 0.7836441,0.7753689 1.4437057,1.4097616 1.4668036,1.4097616 0.023098,0 0.6175758,-0.5720339 1.3210619,-1.2711864 0.7034866,-0.6991526 1.2922246,-1.2711865 1.3083076,-1.2711865 0.01608,0 0.103617,0.072458 0.194522,0.161017 l 0.16528,0.1610169 -1.316658,1.297994 -1.3166584,1.2979939 1.3311844,1.3121755 1.331184,1.3121752 -0.175607,0.175336 -0.175608,0.175335 -1.31611,-1.293818 C 9.2817717,8.702892 8.6764246,8.1163079 8.6604165,8.110972 8.6444085,8.105636 7.9821738,8.7424279 7.1887839,9.5260648 6.395394,10.309702 5.7403275,10.95086 5.7330806,10.95086 c -0.00725,0 -0.088874,-0.07736 -0.1813934,-0.171918 z"
     id="path4543"
     inkscape:connector-curvature="0" />
</svg>
