<?xml version="1.0" encoding="UTF-8" standalone="no"?>
<!-- Created with Inkscape (http://www.inkscape.org/) -->

<svg
   version="1.1"
   id="svg2"
   width="220"
   height="230"
   viewBox="0 0 220 230"
   sodipodi:docname="show_hide_labels.svg"
   inkscape:version="1.1.1 (1:1.1+202109281949+c3084ef5ed)"
   xmlns:inkscape="http://www.inkscape.org/namespaces/inkscape"
   xmlns:sodipodi="http://sodipodi.sourceforge.net/DTD/sodipodi-0.dtd"
   xmlns="http://www.w3.org/2000/svg"
   xmlns:svg="http://www.w3.org/2000/svg">
  <sodipodi:namedview
     id="namedview6"
     pagecolor="#ffffff"
     bordercolor="#666666"
     borderopacity="1.0"
     inkscape:pageshadow="2"
     inkscape:pageopacity="0.0"
     inkscape:pagecheckerboard="0"
     showgrid="false"
     inkscape:zoom="1.8217391"
     inkscape:cx="49.128878"
     inkscape:cy="123.23389"
     inkscape:window-width="1864"
     inkscape:window-height="1016"
     inkscape:window-x="56"
     inkscape:window-y="27"
     inkscape:window-maximized="1"
     inkscape:current-layer="svg2" />
  <defs
     id="defs6" />
  <g
     id="g8"
     transform="matrix(1.0898043,0,0,1.0898043,50.725247,23.073052)">
    <path
       style="fill:#000000"
       d="M 64.488895,181.8273 C 60.532255,179.9431 48.824625,168.72906 8.3832755,128.08707 -37.839136,81.635332 -42.837386,76.297912 -43.926326,72.227892 c -1.69767,-6.345192 2.87271,-66.0458482 5.44551,-71.1320232 2.39285,-4.7304386 5.34394,-7.7417726 9.85199,-10.0531006 5.5411,-2.8409892 64.71871,-7.5758732 71.617721,-5.7302362 4.07383,1.089839 9.39993,6.0880242 56.23895,52.776438 29.704305,29.608786 52.444875,53.060192 53.396495,55.065582 2.5662,5.40786 2.87385,11.436138 0.85918,16.835078 -1.47844,3.96194 -7.02961,10.02788 -33.88138,37.02328 -33.968514,34.15021 -37.775284,37.22518 -46.059585,37.20521 -2.22951,-0.005 -6.30366,-1.08124 -9.05366,-2.39082 z m 16.500001,-8.64558 c 1.375,-0.98863 16.50047,-15.89517 33.612154,-33.12567 33.04558,-33.27501 33.41538,-33.75856 31.34325,-40.983668 C 144.63911,94.521452 44.958812,-5.3943198 40.480718,-6.6403358 c -1.857716,-0.516904 -14.669602,0.06528 -33.4999995,1.522283 -32.5643545,2.5196606 -32.8644145,2.5875266 -37.1733545,8.4077336 -1.50114,2.027623 -2.20241,7.5729482 -4.16441,32.9300342 -1.457,18.830398 -2.03919,31.642284 -1.52229,33.5 1.14197,4.104131 101.160971,104.180705 105.399991,105.460655 3.71701,1.12232 8.21867,0.33779 11.468241,-1.99865 z M -0.05108153,51.925153 C -5.1380885,49.235079 -9.0111045,42.905717 -9.0111045,37.282498 c 0,-5.91993 3.803722,-12.203493 8.96188997,-14.804606 5.55193903,-2.79968 10.16245153,-2.852311 15.68467653,-0.179048 9.948053,4.81577 12.252669,17.607299 4.682026,25.987095 -5.588613,6.185926 -13.0363295,7.516596 -20.36856953,3.639214 z M 13.353658,43.359611 c 3.031284,-2.652458 3.7854,-5.836566 2.251678,-9.507279 C 12.708818,26.919989 3.5443835,26.898147 0.24562047,33.815722 -3.6686845,42.024105 6.4556395,49.395567 13.353658,43.359609 Z"
       id="path12" />
  </g>
</svg>
