<?xml version="1.0" encoding="UTF-8" standalone="no"?>
<svg
   viewBox="0 0 32 32"
   version="1.1"
   id="svg8"
   sodipodi:docname="snap-bounding-box-center.svg"
   inkscape:version="1.1.1 (1:1.1+202109281949+c3084ef5ed)"
   width="32"
   height="32"
   xmlns:inkscape="http://www.inkscape.org/namespaces/inkscape"
   xmlns:sodipodi="http://sodipodi.sourceforge.net/DTD/sodipodi-0.dtd"
   xmlns="http://www.w3.org/2000/svg"
   xmlns:svg="http://www.w3.org/2000/svg"
   xmlns:rdf="http://www.w3.org/1999/02/22-rdf-syntax-ns#"
   xmlns:cc="http://creativecommons.org/ns#"
   xmlns:dc="http://purl.org/dc/elements/1.1/">
  <metadata
     id="metadata12">
    <rdf:RDF>
      <cc:Work
         rdf:about="">
        <dc:format>image/svg+xml</dc:format>
        <dc:type
           rdf:resource="http://purl.org/dc/dcmitype/StillImage" />
      </cc:Work>
    </rdf:RDF>
  </metadata>
  <sodipodi:namedview
     pagecolor="#ffffff"
     bordercolor="#666666"
     borderopacity="1"
     objecttolerance="10"
     gridtolerance="10"
     guidetolerance="10"
     inkscape:pageopacity="0"
     inkscape:pageshadow="2"
     inkscape:window-width="1864"
     inkscape:window-height="1016"
     id="namedview10"
     showgrid="false"
     inkscape:zoom="14.75"
     inkscape:cx="7.9661017"
     inkscape:cy="13.389831"
     inkscape:window-x="56"
     inkscape:window-y="27"
     inkscape:window-maximized="1"
     inkscape:current-layer="svg8"
     inkscape:pagecheckerboard="0"
     width="32px" />
  <defs
     id="defs3051">
    <style
       type="text/css"
       id="current-color-scheme">
      .ColorScheme-Text {
        color:#232629;
      }
      .ColorScheme-Highlight {
        color:#3daee9;
      }
      </style>
  </defs>
  <path
     style="fill:currentColor;fill-opacity:1;stroke:none;stroke-width:2.5"
     d="m 1.1186442,1.0508476 v 7.5 h 7.5 v -7.5 z m 22.4999948,0 v 7.5 h 7.5 v -7.5 z m -19.9999948,2.5 h 2.5 v 2.5 h -2.5 z m 7.4999948,0 v 2.5 h 2.5 v -2.5 z m 7.5,0 v 2.5 h 2.5 v -2.5 z m 7.5,0 h 2.5 v 2.5 h -2.5 z M 3.6186442,11.050842 v 2.5 h 2.5 v -2.5 z m 22.4999948,0 v 2.5 h 2.5 v -2.5 z m -22.4999948,7.5 v 2.5 h 2.5 v -2.5 z m 22.4999948,0 v 2.5 h 2.5 v -2.5 z m -24.9999948,5 v 7.5 h 7.5 v -7.5 z m 22.4999948,0 v 7.5 h 7.5 v -7.5 z m -19.9999948,2.5 h 2.5 v 2.5 h -2.5 z m 7.4999948,0 v 2.5 h 2.5 v -2.5 z m 7.5,0 v 2.5 h 2.5 v -2.5 z m 7.5,0 h 2.5 v 2.5 h -2.5 z"
     class="ColorScheme-Text"
     id="path4" />
</svg>
