<?xml version="1.0" encoding="UTF-8" standalone="no"?>
<svg
   viewBox="0 0 32 32"
   version="1.1"
   id="svg9"
   sodipodi:docname="view-visible.svg"
   inkscape:version="1.1.1 (1:1.1+202109281949+c3084ef5ed)"
   width="32"
   height="32"
   xmlns:inkscape="http://www.inkscape.org/namespaces/inkscape"
   xmlns:sodipodi="http://sodipodi.sourceforge.net/DTD/sodipodi-0.dtd"
   xmlns="http://www.w3.org/2000/svg"
   xmlns:svg="http://www.w3.org/2000/svg">
  <sodipodi:namedview
     id="namedview11"
     pagecolor="#ffffff"
     bordercolor="#666666"
     borderopacity="1.0"
     inkscape:pageshadow="2"
     inkscape:pageopacity="0.0"
     inkscape:pagecheckerboard="0"
     showgrid="false"
     inkscape:zoom="18.649941"
     inkscape:cx="6.997341"
     inkscape:cy="13.699775"
     inkscape:window-width="1864"
     inkscape:window-height="1016"
     inkscape:window-x="56"
     inkscape:window-y="27"
     inkscape:window-maximized="1"
     inkscape:current-layer="g7"
     width="32px" />
  <defs
     id="defs3051">
    <style
       type="text/css"
       id="current-color-scheme">
      .ColorScheme-Text {
        color:#eff0f1;
      }
      </style>
  </defs>
  <g
     transform="translate(-421.71429,-531.79074)"
     id="g7">
    <g
       transform="matrix(1.4639312,0,0,1.4639278,421.58447,-976.32227)"
       id="g5"
       style="fill:#000000">
      <path
         style="fill:#000000;fill-opacity:1;stroke:none"
         d="M 8,3 A 8.9999925,9.0000023 0 0 0 0.12304688,7.6679688 c 0.12894502,0.363749 0.35743875,0.6766037 0.65625,0.9082031 A 7.9999935,8.0000021 0 0 1 8,4 3.9999996,4.0000004 0 0 0 4,8 3.9999996,4.0000004 0 0 0 8,12 3.9999996,4.0000004 0 0 0 12,8 3.9999996,4.0000004 0 0 0 8.3496094,4.0175781 7.9999935,8.0000021 0 0 1 15.220703,8.5761719 C 15.522218,8.3424725 15.752612,8.0260772 15.880859,7.6582031 A 8.9999925,9.0000023 0 0 0 8,3 Z M 8,5 A 2.9999996,3.0000002 0 0 1 11,8 2.9999996,3.0000002 0 0 1 8,11 2.9999996,3.0000002 0 0 1 5,8 2.9999996,3.0000002 0 0 1 8,5 Z M 8,6 A 1.9999999,2.0000003 0 0 0 6,8 1.9999999,2.0000003 0 0 0 8,10 1.9999999,2.0000003 0 0 0 10,8 1.9999999,2.0000003 0 0 0 9.9101562,7.4121094 0.9999999,1 0 0 1 9,8 0.9999999,1 0 0 1 8,7 0.9999999,1 0 0 1 8.5898438,6.0898438 1.9999999,2.0000003 0 0 0 8,6 Z"
         transform="matrix(1.3333333,0,0,1.3333367,0.33333333,1030.6955)"
         class="ColorScheme-Text"
         id="rect4170" />
    </g>
  </g>
</svg>
