<?xml version="1.0" encoding="UTF-8" standalone="no"?>
<svg
   viewBox="0 0 32 32"
   version="1.1"
   id="svg6"
   sodipodi:docname="zoom-fit-best.svg"
   inkscape:version="1.1.1 (1:1.1+202109281949+c3084ef5ed)"
   xmlns:inkscape="http://www.inkscape.org/namespaces/inkscape"
   xmlns:sodipodi="http://sodipodi.sourceforge.net/DTD/sodipodi-0.dtd"
   xmlns="http://www.w3.org/2000/svg"
   xmlns:svg="http://www.w3.org/2000/svg">
  <sodipodi:namedview
     id="namedview8"
     pagecolor="#ffffff"
     bordercolor="#666666"
     borderopacity="1.0"
     inkscape:pageshadow="2"
     inkscape:pageopacity="0.0"
     inkscape:pagecheckerboard="0"
     showgrid="false"
     inkscape:zoom="13.09375"
     inkscape:cx="11.0358"
     inkscape:cy="16.229117"
     inkscape:window-width="1864"
     inkscape:window-height="1016"
     inkscape:window-x="56"
     inkscape:window-y="27"
     inkscape:window-maximized="1"
     inkscape:current-layer="svg6" />
  <defs
     id="defs3051">
    <style
       type="text/css"
       id="current-color-scheme">
      .ColorScheme-Text {
        color:#232629;
      }
      </style>
  </defs>
  <path
     style="fill:currentColor;fill-opacity:1;stroke:none;stroke-width:1.2502"
     d="m 0.97589126,1.1955619 v 6.249995 H 2.2258933 v -4.999993 h 4.999993 v -1.250002 z m 14.99999974,0 -3.75,3.75 h 7.5 z m 8.75002,0 v 1.250002 h 4.99996 v 4.999993 h 1.25002 V 1.1955619 Z M 7.2258863,7.4455569 V 24.945582 H 24.725911 V 7.4455569 Z M 5.9758933,6.1955639 H 25.975871 V 26.195542 H 5.9758933 Z m -1.250002,6.2499981 -3.75000004,3.75 3.75000004,3.75 z m 22.4999997,0 v 7.5 l 3.75,-3.75 z M 0.97589126,24.945582 v 6.24998 H 7.2258863 v -1.25002 h -4.999993 v -4.99996 z m 28.74997974,0 v 4.99996 h -4.99996 v 1.25002 h 6.24998 v -6.24998 z m -17.49998,2.49998 3.75,3.75 3.75,-3.75 z"
     class="ColorScheme-Text"
     id="path4" />
</svg>
